# xmcd
#
# Track frame offsets: 
#        150
#        15592
#        32361
#        54591
#        69159
#        95486
#        113038
#        141342
#        195060
#        213189
#        229152
#
# Disc length: 3338 seconds
#
# Revision: 0
# Processed by: cddbd v1.5.2PL0 Copyright (c) Steve Scherf et al.
# Submitted via: ExactAudioCopy v0.95b3
#
DISCID=840d080b
DTITLE=Shana Morrison - That's Who I Am
DYEAR=2006
DGENRE=Folk/Rock
TTITLE0=Strong On You
TTITLE1=You Don't Own Me
TTITLE2=Wo Wo Wo
TTITLE3=Right Or Wrong
TTITLE4=Will The Circle Be Unbroken
TTITLE5=Seven Years
TTITLE6=Drive
TTITLE7=Simple
TTITLE8=Jupiter Jones
TTITLE9=More Than I Need
TTITLE10=Punchline
EXTD=
EXTT0=
EXTT1=
EXTT2=
EXTT3=
EXTT4=
EXTT5=
EXTT6=
EXTT7=
EXTT8=
EXTT9=
EXTT10=
PLAYORDER=
